<svg width="70" height="70" viewBox="0 0 70 70" fill="none" xmlns="http://www.w3.org/2000/svg">
<path d="M28.4375 8.75C24.259 8.75 20.8752 11.7834 20.0293 15.7227C14.928 16.637 10.9375 20.8923 10.9375 26.25C10.9375 26.7883 10.9973 27.2668 11.0742 27.7539C9.66431 29.8303 8.75 32.2742 8.75 35C8.75 38.9307 10.7068 42.2375 13.4668 44.6387C13.2703 45.4163 13.125 46.1938 13.125 47.0312C13.125 52.4402 17.5598 56.875 22.9688 56.875C23.0286 56.875 23.0542 56.875 23.1055 56.875C24.3787 59.3445 26.5833 61.25 29.5312 61.25C31.6675 61.25 33.6072 60.3528 35 58.9258C36.3928 60.3528 38.3325 61.25 40.4688 61.25C43.4167 61.25 45.6213 59.3445 46.8945 56.875C46.9458 56.875 46.9714 56.875 47.0312 56.875C52.1667 56.875 56.3794 52.876 56.8066 47.8516H56.875C56.875 47.7148 56.8152 47.5781 56.8066 47.4414C56.8152 47.3047 56.875 47.168 56.875 47.0312C56.875 46.2195 56.5845 45.5273 56.3965 44.7754C59.2334 42.3657 61.25 38.999 61.25 35C61.25 32.2742 60.3357 29.8303 58.9258 27.7539C59.0027 27.2668 59.0625 26.7883 59.0625 26.25C59.0625 20.8923 55.072 16.637 49.9707 15.7227C49.1248 11.7834 45.741 8.75 41.5625 8.75C38.9392 8.75 36.6064 9.97192 35 11.8262C33.3936 9.97192 31.0608 8.75 28.4375 8.75ZM28.4375 13.125C30.8813 13.125 32.8125 15.0562 32.8125 17.5V21.875C32.8125 25.5237 29.8987 28.4375 26.25 28.4375V32.8125C28.728 32.8125 30.9753 31.958 32.8125 30.5566V53.5938C32.8125 55.4309 31.3684 56.875 29.5312 56.875C27.8992 56.875 26.5918 55.7471 26.3184 54.209L25.9082 52.0898L23.7891 52.4316C23.4045 52.4915 23.1653 52.5 22.9688 52.5C19.9268 52.5 17.5 50.0732 17.5 47.0312C17.5 46.3562 17.6111 45.7239 17.8418 45.1172C17.8589 45.0659 17.8931 45.0317 17.9102 44.9805C18.5852 43.2971 20.0549 42.0667 21.875 41.6992L20.9863 37.3926C18.7048 37.854 16.7224 39.0674 15.3125 40.8105C13.9368 39.2725 13.125 37.2388 13.125 35C13.125 32.9492 13.8257 31.1206 15.0391 29.5996L15.7227 28.7793L15.5176 27.6855C15.398 27.1729 15.3125 26.72 15.3125 26.25C15.3125 22.6013 18.2263 19.6875 21.875 19.6875H24.0625V17.5C24.0625 15.0562 25.9937 13.125 28.4375 13.125ZM41.5625 13.125C44.0063 13.125 45.9375 15.0562 45.9375 17.5V19.6875H48.125C51.7737 19.6875 54.6875 22.6013 54.6875 26.25C54.6875 26.72 54.6021 27.1729 54.4824 27.6855L54.2773 28.7793L54.9609 29.5996C56.1743 31.1206 56.875 32.9492 56.875 35C56.875 37.6233 55.7556 39.9646 53.9355 41.5625C52.4402 40.238 50.5347 39.375 48.3984 39.375C46.3306 39.375 44.4678 40.1099 42.998 41.3574L45.8008 44.707C46.51 44.1089 47.3816 43.75 48.3984 43.75C50.509 43.75 52.1924 45.3308 52.4316 47.373C52.2522 50.2527 49.9536 52.5 47.0312 52.5C46.8347 52.5 46.5955 52.4915 46.2109 52.4316L44.0918 52.0898L43.6816 54.209C43.4082 55.7471 42.1008 56.875 40.4688 56.875C38.6316 56.875 37.1875 55.4309 37.1875 53.5938V30.5566C39.0247 31.958 41.272 32.8125 43.75 32.8125V28.4375C40.1013 28.4375 37.1875 25.5237 37.1875 21.875V17.5C37.1875 15.0562 39.1187 13.125 41.5625 13.125Z" fill="#5D5D5D"/>
</svg>
