<svg width="17" height="17" viewBox="0 0 17 17" fill="none" xmlns="http://www.w3.org/2000/svg">
<g clip-path="url(#clip0_220_565)">
<path d="M11.7964 1.38892H4.85733C2.94117 1.38892 1.38782 2.94348 1.38782 4.86114V11.8056C1.38782 13.7232 2.94117 15.2778 4.85733 15.2778H11.7964C13.7125 15.2778 15.2659 13.7232 15.2659 11.8056V4.86114C15.2659 2.94348 13.7125 1.38892 11.7964 1.38892Z" stroke="white" stroke-width="1.8" stroke-linecap="round" stroke-linejoin="round"/>
<path d="M11.1024 7.89572C11.1881 8.47367 11.0894 9.06392 10.8205 9.58253C10.5517 10.1011 10.1262 10.5217 9.60474 10.7844C9.08325 11.0471 8.49229 11.1385 7.91589 11.0457C7.33949 10.9528 6.80702 10.6805 6.3942 10.2674C5.98138 9.85422 5.70924 9.32132 5.61649 8.74448C5.52374 8.16763 5.6151 7.5762 5.87758 7.05431C6.14006 6.53242 6.56028 6.10665 7.07849 5.83755C7.59669 5.56845 8.18649 5.46974 8.76399 5.55544C9.35306 5.64286 9.89841 5.91757 10.3195 6.33899C10.7406 6.7604 11.0151 7.30619 11.1024 7.89572Z" stroke="white" stroke-width="1.5" stroke-linecap="round" stroke-linejoin="round"/>
<path d="M12.1433 4.51392H12.1503" stroke="white" stroke-width="1.5" stroke-linecap="round" stroke-linejoin="round"/>
</g>
<defs>
<clipPath id="clip0_220_565">
<rect width="16.6537" height="16.6667" rx="5" fill="white"/>
</clipPath>
</defs>
</svg>
