<svg width="50" height="50" viewBox="0 0 50 50" fill="none" xmlns="http://www.w3.org/2000/svg">
<path d="M25.0003 3.12524C16.3743 3.12524 9.37531 9.42505 9.37531 17.1877C9.37531 29.6877 25.0003 46.8752 25.0003 46.8752C25.0003 46.8752 40.6253 29.6877 40.6253 17.1877C40.6253 9.42505 33.6263 3.12524 25.0003 3.12524ZM25.0003 25.0002C23.7642 25.0002 22.5558 24.6337 21.528 23.9469C20.5002 23.2602 19.6991 22.2841 19.2261 21.142C18.753 20 18.6292 18.7433 18.8704 17.5309C19.1116 16.3185 19.7068 15.2049 20.5809 14.3308C21.455 13.4567 22.5686 12.8615 23.781 12.6203C24.9934 12.3792 26.25 12.5029 27.3921 12.976C28.5341 13.449 29.5102 14.2501 30.197 15.2779C30.8837 16.3057 31.2503 17.5141 31.2503 18.7502C31.2485 20.4073 30.5894 21.996 29.4177 23.1677C28.246 24.3394 26.6574 24.9984 25.0003 25.0002Z" fill="#FF0000"/>
</svg>
