<svg width="70" height="70" viewBox="0 0 70 70" fill="none" xmlns="http://www.w3.org/2000/svg">
<path d="M61.1297 36.5441C61.1297 35.1634 60.0104 34.0441 58.6297 34.0441C57.249 34.0441 56.1297 35.1634 56.1297 36.5441H58.6297H61.1297ZM33.6898 14.3382C35.0706 14.3382 36.1898 13.2189 36.1898 11.8382C36.1898 10.4575 35.0706 9.33824 33.6898 9.33824V11.8382V14.3382ZM48.6598 36.5441C48.6598 35.1634 47.5405 34.0441 46.1598 34.0441C44.7791 34.0441 43.6598 35.1634 43.6598 36.5441H46.1598H48.6598ZM33.6898 26.6912C35.0706 26.6912 36.1898 25.5719 36.1898 24.1912C36.1898 22.8105 35.0706 21.6912 33.6898 21.6912V24.1912V26.6912ZM46.4712 26.9037C47.4521 25.932 47.4596 24.3491 46.4879 23.3682C45.5162 22.3873 43.9333 22.3798 42.9524 23.3515L44.7118 25.1276L46.4712 26.9037ZM31.9304 34.2701C30.9495 35.2418 30.9421 36.8247 31.9138 37.8056C32.8855 38.7865 34.4684 38.7939 35.4493 37.8222L33.6898 36.0462L31.9304 34.2701ZM61.25 17.4848L63.0094 19.2609C63.6841 18.5926 63.9218 17.5997 63.623 16.6983C63.3243 15.7969 62.5406 15.1426 61.6003 15.0095L61.25 17.4848ZM51.3302 27.3116L50.5464 29.6855C51.4391 29.9803 52.4217 29.7493 53.0897 29.0876L51.3302 27.3116ZM42.5127 18.5767L40.7533 16.8006C40.0757 17.4718 39.8391 18.4701 40.1432 19.374L42.5127 18.5767ZM52.4324 8.75L54.9068 8.39317C54.7721 7.45862 54.1223 6.67974 53.227 6.37963C52.3318 6.07953 51.3438 6.30942 50.673 6.97392L52.4324 8.75ZM44.7171 25.1278L42.3476 25.9251C42.5986 26.6709 43.186 27.255 43.9332 27.5018L44.7171 25.1278ZM53.5346 16.393L51.0602 16.7498C51.2188 17.8496 52.0842 18.7126 53.1843 18.8683L53.5346 16.393ZM58.6297 36.5441H56.1297C56.1297 48.7859 46.1053 58.75 33.6898 58.75V61.25V63.75C48.8222 63.75 61.1297 51.5917 61.1297 36.5441H58.6297ZM33.6898 61.25V58.75C21.2744 58.75 11.25 48.7859 11.25 36.5441H8.75H6.25C6.25 51.5917 18.5575 63.75 33.6898 63.75V61.25ZM8.75 36.5441H11.25C11.25 24.3023 21.2744 14.3382 33.6898 14.3382V11.8382V9.33824C18.5575 9.33824 6.25 21.4966 6.25 36.5441H8.75ZM46.1598 36.5441H43.6598C43.6598 41.9636 39.2183 46.3971 33.6898 46.3971V48.8971V51.3971C41.9352 51.3971 48.6598 44.7693 48.6598 36.5441H46.1598ZM33.6898 48.8971V46.3971C28.1613 46.3971 23.7199 41.9636 23.7199 36.5441H21.2199H18.7199C18.7199 44.7693 25.4445 51.3971 33.6898 51.3971V48.8971ZM21.2199 36.5441H23.7199C23.7199 31.1247 28.1613 26.6912 33.6898 26.6912V24.1912V21.6912C25.4445 21.6912 18.7199 28.3189 18.7199 36.5441H21.2199ZM44.7118 25.1276L42.9524 23.3515L31.9304 34.2701L33.6898 36.0462L35.4493 37.8222L46.4712 26.9037L44.7118 25.1276ZM61.25 17.4848L59.4906 15.7088L49.5708 25.5355L51.3302 27.3116L53.0897 29.0876L63.0094 19.2609L61.25 17.4848ZM42.5127 18.5767L44.2721 20.3528L54.1919 10.5261L52.4324 8.75L50.673 6.97392L40.7533 16.8006L42.5127 18.5767ZM51.3302 27.3116L52.1141 24.9376L45.501 22.7539L44.7171 25.1278L43.9332 27.5018L50.5464 29.6855L51.3302 27.3116ZM44.7171 25.1278L47.0865 24.3305L44.8821 17.7794L42.5127 18.5767L40.1432 19.374L42.3476 25.9251L44.7171 25.1278ZM52.4324 8.75L49.958 9.10683L51.0602 16.7498L53.5346 16.393L56.009 16.0362L54.9068 8.39317L52.4324 8.75ZM53.5346 16.393L53.1843 18.8683L60.8997 19.9602L61.25 17.4848L61.6003 15.0095L53.8849 13.9177L53.5346 16.393Z" fill="#5D5D5D"/>
</svg>
