<svg width="17" height="17" viewBox="0 0 17 17" fill="none" xmlns="http://www.w3.org/2000/svg">
<g clip-path="url(#clip0_220_554)">
<path d="M3.88239 1.41107C3.81966 1.33038 3.74049 1.26397 3.65013 1.21623C3.55976 1.1685 3.46028 1.14054 3.35828 1.13421C3.25627 1.12787 3.15409 1.14332 3.05852 1.17951C2.96295 1.21571 2.87617 1.27182 2.80395 1.34413L1.70532 2.44382C1.19214 2.95807 1.00301 3.68588 1.2272 4.32444C2.15767 6.96751 3.67126 9.36717 5.6557 11.3454C7.634 13.3299 10.0337 14.8434 12.6767 15.7739C13.3153 15.9981 14.0431 15.809 14.5573 15.2958L15.6559 14.1972C15.7283 14.125 15.7844 14.0382 15.8206 13.9426C15.8568 13.847 15.8722 13.7449 15.8659 13.6429C15.8595 13.5409 15.8316 13.4414 15.7838 13.351C15.7361 13.2607 15.6697 13.1815 15.589 13.1188L13.1378 11.2126C13.0516 11.1458 12.9514 11.0994 12.8446 11.0769C12.7379 11.0545 12.6274 11.0565 12.5216 11.083L10.1947 11.6642C9.88411 11.7418 9.55871 11.7377 9.25018 11.6522C8.94166 11.5668 8.66052 11.4029 8.43414 11.1765L5.82464 8.56594C5.59808 8.33967 5.43398 8.05858 5.34833 7.75005C5.26268 7.44152 5.25839 7.11606 5.33589 6.80538L5.91814 4.47851C5.9446 4.37268 5.94668 4.26222 5.92423 4.15547C5.90178 4.04872 5.85537 3.94846 5.78851 3.86226L3.88239 1.41107ZM2.00176 0.543007C2.18769 0.357016 2.41107 0.212708 2.65705 0.119666C2.90303 0.0266234 3.16599 -0.0130242 3.42847 0.00335565C3.69095 0.0197354 3.94694 0.0917678 4.17944 0.21467C4.41195 0.337571 4.61565 0.50853 4.77701 0.716194L6.68314 3.16632C7.0327 3.61576 7.15595 4.20119 7.01782 4.75369L6.43664 7.08057C6.40659 7.20109 6.40821 7.32733 6.44135 7.44704C6.47449 7.56674 6.53801 7.67585 6.62576 7.76376L9.23632 10.3743C9.32434 10.4622 9.43362 10.5259 9.55354 10.559C9.67345 10.5922 9.7999 10.5937 9.92057 10.5634L12.2464 9.98226C12.519 9.91409 12.8036 9.90879 13.0786 9.96677C13.3536 10.0248 13.6118 10.1445 13.8338 10.3169L16.2839 12.2231C17.1647 12.9084 17.2455 14.2099 16.4571 14.9973L15.3584 16.0959C14.5722 16.8821 13.3971 17.2274 12.3016 16.8418C9.49789 15.8553 6.95224 14.2501 4.85351 12.1455C2.74901 10.0471 1.14391 7.50181 0.157262 4.69844C-0.227363 3.60407 0.11795 2.42788 0.9042 1.64163L2.00282 0.543007H2.00176Z" fill="white"/>
</g>
<defs>
<clipPath id="clip0_220_554">
<rect width="17" height="17" fill="white"/>
</clipPath>
</defs>
</svg>
