<svg width="17" height="17" viewBox="0 0 17 17" fill="none" xmlns="http://www.w3.org/2000/svg">
<path fill-rule="evenodd" clip-rule="evenodd" d="M2.22024 11.6891L1.22998 15.3076L4.93007 14.3366C5.94961 14.893 7.09739 15.1862 8.26544 15.1867H8.26845C12.1152 15.1867 15.2466 12.0537 15.2483 8.2037C15.249 6.33768 14.5235 4.58326 13.2059 3.26333C11.8879 1.9434 10.1355 1.21624 8.26845 1.21533C4.42102 1.21533 1.29011 4.34777 1.28855 8.19807C1.28815 9.42878 1.60948 10.6302 2.22024 11.6891ZM2.46705 8.19844C2.46823 4.99836 5.07063 2.39488 8.27069 2.39488C9.82032 2.39553 11.2768 2.99995 12.3721 4.09695C13.4675 5.19395 14.0703 6.6523 14.0697 8.20315C14.0684 11.4035 11.466 14.0072 8.26843 14.0072H8.26622C7.22499 14.0067 6.20401 13.727 5.3135 13.1981L5.10148 13.0723L2.90576 13.6485L3.49197 11.5069L3.35392 11.2873C2.77323 10.3631 2.46658 9.29505 2.46705 8.19844Z" fill="white"/>
<path fill-rule="evenodd" clip-rule="evenodd" d="M6.52403 5.27875C6.39331 4.98818 6.25578 4.98229 6.13159 4.97719C6.02988 4.97287 5.91354 4.97313 5.79732 4.97313C5.68098 4.97313 5.49207 5.01683 5.33233 5.19148C5.17245 5.36614 4.72183 5.78833 4.72183 6.64709C4.72183 7.50585 5.34684 8.33557 5.4339 8.45214C5.5211 8.56857 6.64038 10.3871 8.41316 11.0866C9.88632 11.668 10.1861 11.5524 10.506 11.5233C10.8257 11.4943 11.5378 11.1012 11.683 10.6936C11.8284 10.2861 11.8284 9.93691 11.7849 9.86391C11.7412 9.79104 11.625 9.74747 11.4505 9.66021C11.2761 9.57295 10.4186 9.15063 10.2588 9.09241C10.0989 9.03419 9.98267 9.00515 9.86632 9.17981C9.75011 9.35446 9.4161 9.74747 9.31426 9.86391C9.21256 9.98048 9.11085 9.995 8.93633 9.90774C8.76194 9.82021 8.20021 9.63614 7.5339 9.04152C7.01543 8.57891 6.66548 8.00758 6.56364 7.83292C6.46194 7.65827 6.55279 7.56381 6.64025 7.47681C6.71855 7.39857 6.81464 7.27297 6.90196 7.17106C6.9889 7.06914 7.01805 6.9964 7.07609 6.88009C7.13426 6.76353 7.10524 6.66161 7.06158 6.57435C7.01805 6.48708 6.67907 5.62387 6.52403 5.27875Z" fill="white"/>
</svg>
